<svg width="15" height="18" viewBox="0 0 30 36" fill="none" xmlns="http://www.w3.org/2000/svg">
<path d="M14.9998 0.0637207C11.0307 0.0680873 7.22544 1.64663 4.41872 4.45306C1.61201 7.25949 0.0330846 11.0646 0.0283203 15.0337C0.0283203 18.8887 3.01332 24.9217 8.90082 32.9647C9.60171 33.9249 10.5194 34.7061 11.5792 35.2446C12.639 35.7831 13.811 36.0638 14.9998 36.0638C16.1886 36.0638 17.3606 35.7831 18.4204 35.2446C19.4802 34.7061 20.3979 33.9249 21.0988 32.9647C26.9863 24.9217 29.9713 18.8887 29.9713 15.0337C29.9666 11.0646 28.3876 7.25949 25.5809 4.45306C22.7742 1.64663 18.9689 0.0680873 14.9998 0.0637207ZM14.9998 21.0007C13.8131 21.0007 12.6531 20.6488 11.6664 19.9895C10.6797 19.3302 9.91067 18.3932 9.45654 17.2968C9.00242 16.2005 8.8836 14.9941 9.11511 13.8302C9.34662 12.6663 9.91807 11.5972 10.7572 10.7581C11.5963 9.91897 12.6654 9.34752 13.8293 9.11601C14.9932 8.8845 16.1996 9.00332 17.2959 9.45744C18.3923 9.91157 19.3294 10.6806 19.9886 11.6673C20.6479 12.654 20.9998 13.814 20.9998 15.0007C20.9998 16.592 20.3677 18.1181 19.2425 19.2434C18.1172 20.3686 16.5911 21.0007 14.9998 21.0007Z" fill="#FF5924"/>
</svg>
